<mxfile host="app.diagrams.net" modified="2023-11-13T15:14:53.198Z" agent="Mozilla/5.0 (Windows NT 10.0; Win64; x64) AppleWebKit/537.36 (KHTML, like Gecko) Chrome/117.0.0.0 Safari/537.36" version="22.1.0" etag="rh63Ef1PCM6mVqTpUqAV" type="github">
  <diagram name="Seite-1" id="IbMTcxt6a6HKOAOAxl0g">
    <mxGraphModel>
      <root>
        <mxCell id="0" />
        <mxCell id="1" parent="0" />
      </root>
    </mxGraphModel>
  </diagram>
</mxfile>
